<?xml version="1.0" encoding="utf-8"?>
<!-- Generator: Adobe Illustrator 19.0.0, SVG Export Plug-In . SVG Version: 6.00 Build 0)  -->
<svg version="1.1" id="Layer_1" xmlns="http://www.w3.org/2000/svg" xmlns:xlink="http://www.w3.org/1999/xlink" x="0px" y="0px"
	 viewBox="0 0 110.7 111.3" style="enable-background:new 0 0 110.7 111.3;" xml:space="preserve">
<style type="text/css">
	.st0{fill:#FFFFFF;}
	.st1{fill:#925800;}
	.st2{fill:#D8AD6A;stroke:#F2E596;stroke-width:2;stroke-miterlimit:10;}
	.st3{font-family:'ArialMT';}
	.st4{font-size:82.0041px;}
	.st5{fill:#F2E596;}
</style>
<circle id="XMLID_4_" class="st0" cx="48.8" cy="92.6" r="4.3"/>
<circle id="XMLID_10_" class="st1" cx="65.8" cy="29.8" r="4.3"/>
<path id="XMLID_5_" class="st0" d="M14.4,46.9c0.3-4.8,0.6-9.7,0.7-14.5c0.1-2.3-1.1-3.7-2.7-4.4c-0.3-0.9-0.9-1.6-1.7-2.2
	c0.1-0.4,0.1-0.7,0.2-1.1c0.2-1.2,0.1-2.3-0.3-3.3c0-2.9,0-5.8-0.1-8.7c-0.2-6.4-10.2-6.4-10,0c0.2,4.6,0.1,9.2-0.1,13.9
	c-0.7,3.5-1.7,6.9-2.8,10.3C-2.6,37.4-2.8,38-3,38.6c-1,3.2,1,5.4,3.5,5.9c-0.2,2.3-0.1,4.7-0.8,6.8c-1,3,0.9,5.2,3.2,5.9
	c-0.3,1-0.5,1.9-0.7,2.9c-0.7,1-1,2.3-0.7,3.9c0.1,0.3,0.1,0.6,0.2,0.9c0.1,0.7,0.4,1.2,0.8,1.7c-0.1,0.8-0.2,1.7-0.3,2.5
	c-0.9,6.3,8.8,9,9.6,2.7c0.7-5.3,1.4-10.7,1.9-16.1c0.4-1.6,0.9-3.1,1.4-4.7C15.6,49.4,15.2,47.9,14.4,46.9z"/>
<path id="XMLID_17_" d="M116.3,12.3c0.3-4.3-0.4-8.6-2-12.5c-0.8-2-2.5-3.6-4.6-3.7c-0.8-0.6-1.8-0.9-3-0.8c-3.7,0.2-7.3,0.3-11,0.3
	c-0.8-1-2-1.7-3.6-1.7c-6.2-0.1-12.3,0.1-18.5,0.5c-1,0.1-1.8,0.4-2.5,0.8C65.2-5,59.4-5,53.5-4.8C41.4-4.3,29.2-3.8,17-3.3
	C11.7-3.2,6.4-3,1.2-2.7c-4.6,0.2-5.9,5.5-3.9,8.3c-2.2,14.2-2.1,28.5-1.6,42.8c0.3,8.2,0.7,16.5,0.7,24.7c0,7.7-0.9,15.4-1.1,23
	c-0.1,6,1.3,12.2,5.8,16.4c3,2.8,7.7,4.5,11.1,2.7c4,1.1,8.6,1.2,12.8,1.3c10.8,0.2,21.7-0.3,32.4-1.4c0.2,0,0.4,0,0.6-0.1
	c11.1,0.6,24.3,1.3,34.8-3.5c2-0.1,4-0.1,6-0.2c0.1,0,0.2,0,0.3,0c0.9,1.5,2.3,2.2,4.2,2.4c0.9,0.1,1.8-0.1,2.6-0.5
	c0.3,0.1,0.5,0.2,0.8,0.3c2.5,0.7,5.6-0.8,6.2-3.5c0.3-1.7,0.4-3.2,0.3-4.8c0-0.1,0-0.1,0-0.2c0.3-4.6,0.6-9.2,0.9-13.8
	c0.1-1.1-0.2-2-0.6-2.7c0.2-6,0.3-12,0.3-17.9c0.8-4.6,1.4-9.3,1.9-14c0.3-2.5-1.1-4-2.9-4.6c-0.3-2.4-0.6-4.8-1-7.2c0,0,0,0,0-0.1
	c2.3-9.2,2.1-18.7,1.2-28C114.7,16.2,116.2,14.6,116.3,12.3z M102.9,65c-2.6-1.5-6.5-1-7.6,2.7c-2.4,7.8-5.5,15.3-9.3,22.6
	c-2-0.8-4.1-1.4-6.3-2C71.7,86.2,63.3,85,55,84c-8.5-1-17-1.9-25.5-2.6c-2.1-0.2-4.2-0.4-6.2-0.5c-4.8-10.7-7.6-22.2-7.1-34
	c1.3-0.4,2.4-1.4,2.9-2.9c0.7-0.2,1.3-0.6,1.8-1.1c1.7,1.9,4.6,2.3,6.6,1.3c2.6,3.8,9.8,3.1,9.1-2.4c-0.1-0.4-0.1-0.9-0.2-1.3
	c0-0.1,0.1-0.2,0.1-0.4c0.2-1.3,0.5-2.7,0.7-4c0.4,0.1,0.8,0.2,1.3,0.3c0.8,1.7,2.8,3,4.6,3c3.9-0.1,7.7-1.5,10.5-4.2
	c1.2-0.3,2.3-0.7,3.5-1.1c0.9,0.3,1.9,0.4,3,0.1c3-0.8,5.9-1.6,8.9-2.3c2.6-0.7,5.4-1.8,8.1-1.7c4.9,0.1,6.1-5.7,3.5-8.5
	c0.7-0.6,1.4-1.1,2.1-1.7c1.2,1.8,2.7,3.3,4.4,4.3c1.5,0.9,2.9,0.9,4.1,0.5c0.3,1.3,1,2.4,2.3,3c0.6,0.3,1.3,0.6,1.9,1
	c0.3,0.2,0.5,0.4,0.8,0.5c0.1,0.1,0.3,0.3,0.5,0.4c0.5,0.5,1,1,1.5,1.5c0.1,0.2,0.3,0.3,0.4,0.5c0,0.1,0.5,0.7,0.5,0.8
	c0.1,0.2,0.3,0.4,0.5,0.6c0.1,0.4,0.2,0.9,0.3,1.3c0.2,1.2,0.5,2.4,0.7,3.6c-0.1,2-0.2,4.1-0.4,6.1c-0.1,2.1,0.8,3.5,2.2,4.2
	c0.3,1.8,0.5,3.6,0.7,5.4c-0.5,0.9-0.7,2-0.4,3.2C103,59.5,103.1,62.2,102.9,65z"/>
<path id="XMLID_15_" class="st2" d="M77.3,9.3c-0.1,0.7-0.4,2-0.4,1.9c-0.2,1.6-0.3,3.3-0.6,4.9c-0.6,3.4-1.6,7-4.8,8.8
	c-2.1,1.2-4,1.3-5.8,0.8c-1,0.4-2.2,0.6-3.3,0.3c-1.2-0.4-2.5-0.7-3.8-0.9c-0.1,0-0.2,0-0.3-0.1c0,0.2-0.1,0.3-0.1,0.5
	c-0.4,1.2-1.1,2.1-2,2.7c-1.2,4-3.6,7.2-8.8,8.2c-5,1-8.9-0.7-12.5-3.2c-1.4,2.4-3.3,4.3-5.9,5.4c-4.6,2-9.8,0.8-14.5-0.1
	c-1.8-0.4-3.7-0.8-5.4-1.5c-2,5.4-3.1,11.3-3.1,17.5c0,27.6,22.4,50,50,50c27.6,0,50-22.4,50-50C105.9,34.6,94.2,17.4,77.3,9.3z"/>
<text id="XMLID_67_" transform="matrix(0.9331 0 0 1 12.8327 83.1468)" class="st0 st3 st4">IM</text>
<path id="XMLID_6_" class="st5" d="M47.3,16.9L47,17c0.1-0.1,0,0-0.1,0.1l-0.1,0.1l0,0.3c0,0,0,0.1,0,0.1V18l0.1,0.2l0.2,0.1
	c0,0,0.2-0.1,0.2,0s0.1,0.1,0.1,0.1c0,0,0.1-0.1,0.2,0c0,0.1,0.2,0.1,0.3,0.1c0.1,0,0.1,0,0.2,0c0.1,0,0.1-0.1,0.1-0.1
	s0.1-0.2,0.1-0.2c0,0,0.1,0,0.2-0.2l0-0.3c0,0,0-0.1,0-0.2c-0.1-0.2-0.2-0.2,0-0.3c0.1-0.1-0.6-0.5-0.1-0.3c0.1,0,0,0-0.2-0.1
	c-0.2-0.2-0.4,0.1-1-0.1L47.1,17"/>
<path id="XMLID_1_" class="st5" d="M39.8,16.7l-0.4-0.1c0.1,0.1,0,0-0.1-0.1l-0.2-0.2l-0.1-0.5c0,0,0-0.1,0-0.1V15l0.2-0.3l0.2-0.2
	c0,0,0.2,0.1,0.3,0s0.2-0.1,0.2-0.1s0.2,0.1,0.2,0s0.3-0.2,0.4-0.2s0.1,0,0.2,0c0.1,0,0.2,0.1,0.2,0.1s0.1,0.3,0.2,0.2
	c0.1-0.1,0.2,0,0.3,0.3l0,0.4c0,0,0,0.2-0.1,0.3c-0.1,0.2-0.3,0.2-0.1,0.4c0.1,0.1-0.8,0.8-0.2,0.4c0.1,0,0,0-0.2,0.1
	c-0.3,0.3-0.6-0.1-1.4,0.1l-0.2-0.3"/>
<path id="XMLID_3_" class="st5" d="M61.3,5.8l-1,0.3c0.4-0.2,0.1,0-0.2,0.2l-0.4,0.4l-0.2,1.2c0,0.1,0,0.2,0,0.3v1.5l0.4,0.6
	l0.6,0.5c0,0,0.6-0.2,0.7,0c0.1,0.2,0.4,0.3,0.5,0.3c0.1,0.1,0.4-0.3,0.6,0c0.1,0.3,0.7,0.4,1,0.4s0.3,0.1,0.6-0.1s0.5-0.3,0.5-0.3
	s0.3-0.7,0.5-0.5c0.2,0.2,0.5-0.1,0.6-0.7l0.1-1c0,0,0.1-0.4-0.1-0.8c-0.3-0.5-0.7-0.5-0.2-1c0.3-0.3-1.9-1.8-0.5-0.9
	c0.2,0.1-0.1,0-0.5-0.3c-0.8-0.7-1.3,0.2-3.3-0.2l-0.4,0.6"/>
<path id="XMLID_2_" class="st5" d="M50.9,8.2l-2,0.6l-1.1,0.9l-0.2,1.6v2.1l0.5,0.8l0.8,0.6c0,0,0.8-0.3,0.9,0s0.5,0.3,0.7,0.4
	s0.6-0.3,0.8,0s0.9,0.5,1.3,0.5s0.4,0.1,0.8-0.1s0.6-0.4,0.6-0.4s0.4-0.4,0.6-0.6s0.6-0.6,0.6-0.6l0.1-1.3c0,0,0.2-0.7,0.1-1.2
	s0.1-0.8-0.2-1.3s-0.4-1-0.6-1.1s-0.1,0-0.8-0.4s-2.3-1.1-2.3-1.1L50.9,8.2"/>
<circle id="XMLID_7_" class="st1" cx="47.8" cy="94.8" r="4.3"/>
<circle id="XMLID_9_" class="st1" cx="62.8" cy="33.8" r="4.3"/>
<circle id="XMLID_12_" class="st1" cx="77.8" cy="75.8" r="4.3"/>
<circle id="XMLID_14_" class="st1" cx="97.8" cy="55.8" r="4.3"/>
<circle id="XMLID_16_" class="st1" cx="13.8" cy="56.8" r="4.3"/>
</svg>
